<?xml version="1.0" encoding="UTF-8" standalone="no"?>
<!-- Created with Inkscape (http://www.inkscape.org/) -->

<svg
   xmlns:osb="http://www.openswatchbook.org/uri/2009/osb"
   xmlns:dc="http://purl.org/dc/elements/1.1/"
   xmlns:cc="http://creativecommons.org/ns#"
   xmlns:rdf="http://www.w3.org/1999/02/22-rdf-syntax-ns#"
   xmlns:svg="http://www.w3.org/2000/svg"
   xmlns="http://www.w3.org/2000/svg"
   xmlns:sodipodi="http://sodipodi.sourceforge.net/DTD/sodipodi-0.dtd"
   xmlns:inkscape="http://www.inkscape.org/namespaces/inkscape"
   id="svg3384"
   version="1.1"
   inkscape:version="0.92.2 (5c3e80d, 2017-08-06)"
   xml:space="preserve"
   width="562.28894"
   height="122.07066"
   viewBox="0 0 527.1459 114.44124"
   sodipodi:docname="openEHR-new-CMYK.svg"><title
     id="title3430">openEHR CMYK</title><metadata
     id="metadata3390"><rdf:RDF><cc:Work
         rdf:about=""><dc:format>image/svg+xml</dc:format><dc:type
           rdf:resource="http://purl.org/dc/dcmitype/StillImage" /><dc:title>openEHR CMYK</dc:title></cc:Work></rdf:RDF></metadata><defs
     id="defs3388"><linearGradient
       id="linearGradient860"
       osb:paint="solid"><stop
         style="stop-color:#000000;stop-opacity:1;"
         offset="0"
         id="stop858" /></linearGradient><linearGradient
       id="linearGradient854"
       osb:paint="solid"><stop
         style="stop-color:#de7d47;stop-opacity:1;"
         offset="0"
         id="stop852" /></linearGradient><clipPath
       clipPathUnits="userSpaceOnUse"
       id="clipPath3398"><path
         d="M 0,141.732 H 453.543 V 0 H 0 Z"
         id="path3400"
         inkscape:connector-curvature="0" /></clipPath></defs><sodipodi:namedview
     pagecolor="#ffffff"
     bordercolor="#666666"
     borderopacity="1"
     objecttolerance="10"
     gridtolerance="10"
     guidetolerance="10"
     inkscape:pageopacity="0"
     inkscape:pageshadow="2"
     inkscape:window-width="1920"
     inkscape:window-height="1021"
     id="namedview3386"
     showgrid="false"
     inkscape:zoom="0.72319491"
     inkscape:cx="18.075269"
     inkscape:cy="63.010631"
     inkscape:window-x="0"
     inkscape:window-y="0"
     inkscape:window-maximized="1"
     inkscape:current-layer="g3396"
     inkscape:pagecheckerboard="true"
     fit-margin-top="0"
     fit-margin-left="0"
     fit-margin-right="0"
     fit-margin-bottom="0" /><g
     id="g3392"
     inkscape:groupmode="layer"
     inkscape:label="openEHR-MedInfo2015-CMYK"
     transform="matrix(1.25,0,0,-1.25,-19.999875,138.41487)"><g
       id="g3394"><g
         id="g3396"
         clip-path="url(#clipPath3398)"><g
           id="g842"
           style="fill:#de7d47;fill-opacity:1"><g
             transform="translate(35.6289,44.4717)"
             id="g3402"
             style="fill:#de7d47;fill-opacity:1"><path
               inkscape:connector-curvature="0"
               id="path3404"
               style="fill:#de7d47;fill-opacity:1;fill-rule:nonzero;stroke:none"
               d="m 0,0 c 5.403,0 10.011,2.939 13.817,8.824 3.81,5.881 5.714,12.394 5.714,19.53 0,4.237 -0.805,7.405 -2.417,9.508 -1.611,2.102 -4.028,3.154 -7.252,3.154 -5.175,0 -9.675,-2.917 -13.5,-8.751 -3.825,-5.833 -5.737,-12.352 -5.737,-19.556 0,-4.17 0.806,-7.332 2.417,-9.482 C -5.347,1.074 -3.026,0 0,0 m -2.147,-7.227 c -5.894,0 -10.28,1.709 -13.161,5.131 -2.88,3.422 -4.321,7.672 -4.321,12.756 0,6.287 1.505,12.511 4.517,18.669 3.009,6.157 6.787,10.848 11.328,14.074 4.541,3.227 9.855,4.84 15.942,4.84 6.12,0 10.588,-1.72 13.404,-5.156 2.815,-3.439 4.223,-7.666 4.223,-12.684 0,-6.254 -1.489,-12.438 -4.468,-18.546 C 22.339,5.748 18.604,1.039 14.11,-2.268 9.619,-5.574 4.199,-7.227 -2.147,-7.227" /></g><g
             transform="translate(82.2842,58.3389)"
             id="g3406"
             style="fill:#de7d47;fill-opacity:1"><path
               inkscape:connector-curvature="0"
               id="path3408"
               style="fill:#de7d47;fill-opacity:1;fill-rule:nonzero;stroke:none"
               d="m 0,0 -2.459,-12.354 c 2.359,-1.205 4.832,-1.806 7.418,-1.806 3.621,0 7.33,1.531 11.129,4.594 3.798,3.064 6.941,7.529 9.432,13.396 2.488,5.868 3.732,11.181 3.732,15.939 0,1.531 -0.338,2.793 -1.017,3.789 -0.677,0.994 -1.663,1.49 -2.954,1.49 C 20.47,25.048 12.043,16.7 0,0 M -17.448,-39.16 -3.086,33.154 H 6.57 L 2.281,11.476 c 4.049,6.914 8.529,12.46 13.437,16.635 4.909,4.175 9.485,6.265 13.729,6.265 3.045,0 5.484,-1.297 7.315,-3.887 1.83,-2.59 2.744,-5.578 2.744,-8.968 0,-6.417 -1.789,-13.163 -5.371,-20.232 -3.581,-7.07 -8.006,-12.568 -13.272,-16.494 -5.267,-3.926 -10.883,-5.889 -16.845,-5.889 -2.237,0 -4.895,0.407 -7.973,1.221 L -7.793,-39.16 Z" /></g><g
             transform="translate(137.3721,65.2734)"
             id="g3410"
             style="fill:#de7d47;fill-opacity:1"><path
               inkscape:connector-curvature="0"
               id="path3412"
               style="fill:#de7d47;fill-opacity:1;fill-rule:nonzero;stroke:none"
               d="m 0,0 c 5.826,0.553 10.293,1.496 13.402,2.832 3.11,1.334 5.567,3.115 7.373,5.346 1.807,2.23 2.71,4.369 2.71,6.421 0,1.301 -0.528,2.514 -1.587,3.637 -1.058,1.123 -2.417,1.684 -4.077,1.684 -2.245,0 -4.491,-0.715 -6.737,-2.148 C 9.26,16.633 7.584,15.135 6.055,13.28 4.816,11.815 3.727,10.211 2.782,8.471 1.838,6.729 0.91,3.906 0,0 m 30.664,-21.485 c -8.398,-4.364 -16.31,-6.543 -23.73,-6.543 -5.568,0 -9.872,1.629 -12.915,4.886 -3.044,3.258 -4.566,7.688 -4.566,13.293 0,6.092 1.4,11.992 4.198,17.691 2.8,5.703 6.601,10.393 11.403,14.076 4.8,3.682 10.016,5.522 15.649,5.522 3.905,0 6.901,-0.928 8.984,-2.787 2.084,-1.858 3.126,-4.466 3.126,-7.823 0,-4.011 -1.278,-7.701 -3.834,-11.076 C 26.424,2.381 22.614,-0.479 17.554,-2.827 12.491,-5.175 6.348,-6.642 -0.879,-7.228 c 0,-4.525 0.983,-7.845 2.953,-9.96 1.969,-2.118 4.533,-3.174 7.692,-3.174 2.505,0 5.867,0.658 10.083,1.976 4.214,1.319 8.438,3.377 12.671,6.178 z" /></g><g
             transform="translate(175.3408,38.4658)"
             id="g3414"
             style="fill:#de7d47;fill-opacity:1"><path
               inkscape:connector-curvature="0"
               id="path3416"
               style="fill:#de7d47;fill-opacity:1;fill-rule:nonzero;stroke:none"
               d="m 0,0 10.533,53.027 h 9.655 L 15.895,31.349 c 3.837,6.523 8.076,11.969 12.71,16.341 4.637,4.373 9.346,6.559 14.129,6.559 2.569,0 4.668,-0.793 6.295,-2.377 1.627,-1.584 2.44,-4.154 2.44,-7.713 0,-2.254 -0.178,-4.326 -0.537,-6.221 L 43.396,0 h -9.657 l 7.593,38.274 c 0.164,0.848 0.246,1.727 0.246,2.641 0,1.106 -0.293,2.002 -0.879,2.688 -0.586,0.683 -1.318,1.025 -2.197,1.025 -2.603,0 -5.84,-2.053 -9.711,-6.162 C 24.918,34.355 19.777,27.751 13.369,18.652 L 9.656,0 Z" /></g></g><g
           id="g850"
           style="fill:#123f6d;fill-opacity:1"><g
             transform="translate(242.915,38.4658)"
             id="g3418"
             style="fill:#123f6d;fill-opacity:1"><path
               inkscape:connector-curvature="0"
               id="path3420"
               style="fill:#123f6d;fill-opacity:1;fill-rule:nonzero;stroke:none"
               d="M 0,0 V 72.266 H 46.29 V 62.305 H 15.04 V 42.188 H 40.87 V 32.227 H 15.04 V 10.254 H 48.584 V 0 Z" /></g><g
             transform="translate(302.9741,38.4658)"
             id="g3422"
             style="fill:#123f6d;fill-opacity:1"><path
               inkscape:connector-curvature="0"
               id="path3424"
               style="fill:#123f6d;fill-opacity:1;fill-rule:nonzero;stroke:none"
               d="M 0,0 V 72.266 H 15.039 V 42.919 H 44.922 V 72.266 H 59.961 V 0 H 44.922 V 32.958 H 15.039 V 0 Z" /></g><g
             transform="translate(393.1616,77.9189)"
             id="g3426"
             style="fill:#123f6d;fill-opacity:1"><path
               inkscape:connector-curvature="0"
               id="path3428"
               style="fill:#123f6d;fill-opacity:1;fill-rule:nonzero;stroke:none"
               d="m 0,0 h 3.461 c 6.207,0 10.495,1.351 12.862,4.054 2.367,2.7 3.551,5.759 3.551,9.177 0,2.963 -0.963,5.315 -2.889,7.057 -1.926,1.74 -5.842,2.611 -11.748,2.611 H 0 Z m -14.16,-39.453 v 72.266 h 27.051 c 5.533,0 9.748,-0.692 12.647,-2.076 2.896,-1.383 5.183,-3.483 6.859,-6.299 1.676,-2.815 2.516,-5.998 2.516,-9.544 0,-4.233 -1.221,-8.229 -3.663,-11.989 -2.441,-3.759 -5.892,-6.633 -10.351,-8.618 l 23.656,-33.74 H 26.239 L 8.268,-9.911 H 0 v -29.542 z" /></g></g></g></g></g></svg>